<?xml version="1.0" standalone="no"?><!DOCTYPE svg PUBLIC "-//W3C//DTD SVG 1.1//EN" "http://www.w3.org/Graphics/SVG/1.1/DTD/svg11.dtd"><svg t="1723862596470" class="icon" viewBox="0 0 2685 1024" version="1.1" xmlns="http://www.w3.org/2000/svg" p-id="6314" xmlns:xlink="http://www.w3.org/1999/xlink" width="524.4140625" height="200"><path d="M583.94390141 664.05467726h-28.34534439a404.825791 404.825791 0 0 0-103.43035163 39.75384254c-47.39301337 27.64173571-82.97546698 51.36337147-82.9754653 51.36337145s29.65204385 29.65204385 51.36337145 55.28347313 42.31698496 45.23193257 42.31698497 45.23193257z" p-id="6315"></path><path d="M3418.83010704 1056.01449798H809.50046846l-0.90463951-1258.30208987c0-99.30921916 45.73450875-123.53343277 123.48317467-123.53343276l1173.66811828-20.10308114 1163.41554856 18.74612357c45.23193257 0 109.86333759 0.70360701 137.30404253 32.36596063 22.76673982 26.23452005 12.31313763 79.75897399 12.36339405 117.20096138z" fill="#4E5B9E" p-id="6316"></path><path d="M1099.88947133-123.78506087h168.91613632v11.86081787H1099.88947133zM1781.48442814-108.85852439c-32.86853682 0-70.71258748-0.85438137-113.07983056-3.11597675a2524.5951541 2524.5951541 0 0 0-286.46890122 0l-0.85438137-11.81055973a2536.90829005 2536.90829005 0 0 1 288.12740583 0c163.38778987 8.74483948 258.6763928-3.81958542 259.63129039-3.92010167l1.55798837 11.71004517c-0.65335056 0.10051457-54.1275447 7.13659296-148.91357144 7.13659298zM1099.88947133-26.0338301h598.51897525v11.86081789H1099.88947133zM1399.12382989 53.97643116h571.83213549v11.86081786H1399.12382989zM1399.12382989 160.62327577h375.0732309v11.86081789h-375.0732309zM1929.49336178 148.76245791h770.35005752v11.86081786H1929.49336178zM1099.88947133 264.35517277h585.15042546v11.86081788H1099.88947133z" fill="#FFFFFF" p-id="6317"></path><path d="M3331.93454009 1126.27476406H891.47077971v-5.93040809l-0.80412325-1258.35234634c0-91.92133725 35.18039199-129.46384087 120.61848515-129.46384086l1092.2003849-20.10308115 1082.90270778 18.74612192h0.50257786c38.99997742 0 103.98318593 0 131.8259525 34.52704143 17.69071139 21.96261657 15.63014516 59.75640742 13.82086787 93.17778025-0.55283433 9.74999351-1.05541218 19.19844165-1.05541218 27.79251008z m-2428.35165356-11.8608162h2416.23954675V-113.38171681c0-8.79509758 0.55283433-18.44457652 1.05541217-28.44585897 1.70876107-31.26029033 3.6185546-66.69197127-11.20746732-85.03603322-24.37498628-30.15462172-86.24221643-30.15462172-123.18162757-30.15462005l-1082.80219322-18.7963817-1092.09986867 20.10308114c-67.39557827 0-109.05921434 19.7010195-109.05921434 117.603023z" fill="#5E6DBE" p-id="6318"></path><path d="M-346.02462036 1283.27982609h4499.67259112v11.86081787H-346.02462036z" fill="#231815" p-id="6319"></path><path d="M3535.37771786 1289.21023586H511.27126394l470.1105449-183.39035644 2437.4482982-49.80538144 116.54761082 233.19573788z" fill="#4E5B9E" p-id="6320"></path><path d="M575.29957652 670.23637595s44.57858201-59.25383123 85.08628968-84.93551696 93.57984187-64.68166314 93.57984019-64.68166315l348.13510386 92.57468779s-43.72420065-83.67907399 24.42524275-126.64940951 241.48825925-86.49350535 241.48825926-86.49350532 111.11977892-29.04895141 137.75636225-36.48709143 211.58492649-44.82987093 260.73695903-44.42780934 447.59509569-4.02061625 514.58861234 9.39819001 436.48814295 158.01021607 436.48814293 158.01021608l94.8362832 58.49996447s416.28454725 248.17253415 444.42886085 271.84391176 274.05525071 137.8066187 330.39413433 154.34140337 122.93034034 25.12885142 157.00506203 11.86081785 37.03992574-4.47293597 47.39301336-57.79635742-336.27428598-38.49739954-336.27428598-38.49739954h-36.53734956v-48.14687851l80.96515887-11.10695275s149.66743657-13.36854813 168.91613636-25.12885142 139.2640925-23.72163574 176.3040199-2.96520406 66.64171315 32.56699143 93.32855293 65.33501204 54.78089525 97.75123078 41.46260361 158.51279396-5.9304081 112.32596377-91.87107914 133.18291001-22.21390383 19.39947247-22.21390383 19.39947246 65.33501203 79.05536532 71.61722533 91.8208227l12.81571379 48.90074361-85.89041289 17.79122765a267.67252118 267.67252118 0 0 1-89.25768028 1.10566861 455.98813167 455.98813167 0 0 1-100.51540402-26.28477815s-7.23710921-0.90463781-46.28734307 5.02577027c-11.0064365 1.65850463-24.52575899 3.86984353-41.11080008 6.78478946-75.38655262 13.36854813-247.41866736 32.61724789-333.35933842 37.03992744s-296.52044347-53.32342146-296.52044344-53.32342315-161.47799632-60.71130503-241.23697031-115.59271488a249.98180978 249.98180978 0 0 1-31.15977577-25.1288514 267.67252118 267.67252118 0 0 1-19.24869977-20.10307949c-2.3118535-2.66365867-4.52319242-5.32731566-6.63401677-8.04123246-3.9703581-5.02577028-7.63917085-10.05154055-11.05669464-14.77576546a293.15317611 293.15317611 0 0 1-38.54765766-75.38655262l49.15203255 110.31565567h-145.29501685l-1515.97332861-16.18297947-80.41232288 16.18297947-243.49856738 110.16488295s-281.4431326 87.44840126-322.80521996 83.52830132-291.19312611 21.71132764-312.30136131 8.1417487 12.61468301-58.6004807 31.76286654-74.68294559 40.20616228-39.75384255 78.7035618-42.7693047 119.7641038-15.07731084 119.76410547-15.07731087l131.52440544-74.18036773a127.45353275 127.45353275 0 0 0-9.39819002-36.43683499c-9.04638651-23.67137761 10.40334406-108.60689459 10.40334407-108.6068946s-6.28221326-35.53219549 27.7925101-92.97674942 56.79120339-96.04246803 56.79120337-96.04246805 32.76802225-72.37109042 34.17523795-88.00123727 55.58501851-58.85176963 55.5850185-58.85176794z" fill="#FFFFFF" p-id="6321"></path><path d="M405.4788007 1148.63944224c-22.16364738-13.11726087-22.51545089-73.7783061-19.60050495-91.21772854l1.05541218-6.58376036c4.17138893-25.93297466 13.97164055-86.84530886 28.94843684-123.58368922a325.77042569 325.77042569 0 0 1 33.52188738-61.86723178c5.9304081-9.14690107 12.51416844-19.2989579 20.10308115-32.26544436a209.72539104 209.72539104 0 0 0 28.99869328-70.36078234c1.30669943-5.02577028 2.71391511-10.70489113 4.42267784-17.03736084 10.80540571-40.20616228 66.54119687-78.75381994 68.90331019-80.41232457l6.73453133 10.05154059c-0.55283433 0.40206162-54.4793499 37.74353442-64.17908527 73.67779151-1.70876107 6.33246972-3.11597674 11.86081789-4.42267783 16.88658817a221.43543625 221.43543625 0 0 1-30.15462173 73.52701886c-7.78994352 13.06700275-14.47421842 23.36983223-20.50514109 32.61724788a319.43795427 319.43795427 0 0 0-32.26544607 59.65589287c-14.47421842 35.48193737-24.42524275 97.65071455-28.19457002 121.0205468l-1.0554122 6.63401675c-3.16623486 18.69586545 0 70.76284394 13.97164055 79.10562343z" p-id="6322"></path><path d="M343.36028 964.94754043h65.18423932v11.86081786h-65.18423932zM340.87755054 1016.42147979l65.22947166-31.58696646 5.1463881 10.62950393-65.22444585 31.58696646z" fill="#231815" p-id="6323"></path><path d="M431.16048642 1013.59699678l-26.98838685-29.19972578 8.74484116-8.04123245 20.40462651 22.16364738 39.25126466-23.26931601 6.03092435 10.20231328-47.44326983 28.14431358zM30.85788786 1331.92928244h-11.86081788v-11.60952893l44.07600581-67.99867237c0.30154538 0 32.16492983-26.13400548 63.57599283-47.69455876s117.50250843-19.24869977 128.86074845-18.89689627l147.35558307-50.86079362 3.86984188 11.20746734-149.46640577 51.61466039h-1.10566864c-0.90463781 0-93.17778025-3.6185546-122.77956762 16.73581381-28.44585898 19.49998869-57.193265 42.56827389-62.11851906 46.538632l-40.20616225 62.87238583zM967.56094098 1124.06342514h400.50362938v11.86081786h-400.50362938zM611.53537904 1283.27982609h2270.5424683v11.86081787H611.53537904z" fill="#231815" p-id="6324"></path><path d="M1178.89457853 563.4890151s53.32342146-5.82989354 88.85561861 10.05154058 36.53734954 47.39301337 100.51540403 108.6571527 152.58238416 161.98057419 292.80137262 155.79887717 290.38900286-90.86592507 320.04104672-120.61848517 136.24863033-142.38007093 179.72154371-154.14037254 106.64684461-23.52060494 140.26924655-6.78478945 130.36847868 44.37755119 205.40322944 44.37754951 122.4780206-29.50127117 140.26924655-44.37754951 71.06439099-70.36078231 71.06439099-70.360784l-89.5089675-55.93682202c-52.01672203-26.63658167 0 0-188.11457966-65.33501368a473.12600876 473.12600876 0 0 0-62.87238586-16.78607192l-165.39809799-33.06956766c-205.80529108-40.20616228-488.60538124 14.22292948-650.78698455 57.89687203A667.07048026 667.07048026 0 0 0 1407.9691856 435.33187536z" fill="#FFC14D" p-id="6325"></path><path d="M2217.69309303 776.03830764a84.63396991 74.43165665 10.76 1 0 27.79211126-146.24597291 84.63396991 74.43165665 10.76 1 0-27.79211126 146.24597291Z" fill="#FFC14D" p-id="6326"></path><path d="M2270.94418907 1197.64070212h-345.42118708a27.69199385 27.69199385 0 0 1-27.64173571-27.64173575v-55.58501851h402.06161774v54.32857552a28.94843684 28.94843684 0 0 1-28.99869495 28.89817874z m-361.30262118-71.36593806v43.72420231a15.83117597 15.83117597 0 0 0 15.78091952 15.78091785h345.42118708a17.03736084 17.03736084 0 0 0 17.03736084-17.03736084v-42.46775932z" fill="#FFFFFF" p-id="6327"></path><path d="M2064.43529099 347.38089619l-9.14690107-7.53865458 71.11464742-86.19195996 9.14690277 7.53865626-71.11464912 86.19195828zM2085.79481511 376.17856036l-8.39303594-8.39303598 86.89556695-86.89556864 8.44329409 8.39303765-86.9458251 86.89556697z" p-id="6328"></path><path d="M2882.07784734 622.84336261l112.57725269-8.14174872" fill="#FFFFFF" p-id="6329"></path><path d="M2882.47990896 628.7737707l-0.80412325-11.81055977 112.5772527-8.14174703 0.80412325 11.81055976-112.5772527 8.14174704z" p-id="6330"></path><path d="M2923.54045259 652.49540643l99.25896103-11.86081786" fill="#FFFFFF" p-id="6331"></path><path d="M2922.89715366 646.51474021l99.25896102-11.82563718 1.4021899 11.78040485-99.25896104 11.82061139z" p-id="6332"></path><path d="M2717.63464698 820.35613228l53.32342145 19.95230676" fill="#FFFFFF" p-id="6333"></path><path d="M2715.5640291 825.94478849l4.14123403-11.06172043 53.32844897 19.96235838-4.14123573 11.05669465z" p-id="6334"></path><path d="M2712.70939123 851.96822609l72.06954505 38.54765768" fill="#FFFFFF" p-id="6335"></path><path d="M2709.95526961 857.32569664l5.58865625-10.45862633 72.06954503 38.51750279-5.5886562 10.45862802z" p-id="6336"></path><path d="M3078.08288677 934.9436931a167.96124042 167.96124042 0 0 1 36.53734954 25.68168572c19.75127762 17.74096953 60.30924341 37.4922455 69.15459745 38.49739953s44.42780932 23.72163574 44.42780931 23.72163576" fill="#FFFFFF" p-id="6337"></path><path d="M3225.0364082 1027.76966815c-16.53478466-10.50386033-37.29121467-22.21390383-41.914925-22.76673813-11.20746732-1.25644299-52.77058716-22.31442005-72.47160499-40.20616229a164.49345847 164.49345847 0 0 0-35.18039199-24.72678979l5.02577029-10.70488946a172.83623799 172.83623799 0 0 1 37.99482168 26.63658167c18.89689629 16.98710272 58.39944987 36.18554605 65.83758987 37.03992575 9.49870627 1.05541218 38.34662686 19.04766896 46.99095176 24.57601712z" p-id="6338"></path><path d="M3712.38534478 994.24778077c-54.1275447 0-154.54243415-27.39044847-179.16870772-37.19069843-28.54637521-11.35824002-251.79108708-126.54889326-261.34005147-131.42389253l5.4278319-10.55411675c2.3118535 1.20618486 232.19058382 119.81436191 260.23438285 130.97157109 32.11467168 12.76545568 161.82980149 45.83502499 195.40194535 33.92394901 40.85951116-14.47421842 64.32985798-28.29508628 63.12367474-56.18811092-1.05541218-23.87240843-0.60309244-37.54250361-0.25128893-48.49868204 0-5.02577028 0.30154538-9.24741734 0.30154539-13.9213841h11.86081788c0 5.02577028 0 9.34793189-0.3015454 14.27318763-0.3518035 11.35824002-0.80412325 24.22421193 0 47.6443023 1.70876107 38.84920304-34.12497982 54.83115339-71.01413287 67.84789799a76.79376828 76.79376828 0 0 1-24.27447172 3.11597675z" fill="#231815" p-id="6339"></path><path d="M3429.88680167 836.13705012l-2.36211161-11.60952895c11.86081789-2.41236974 71.81825612-14.12241493 87.24737047-10.05154054l-3.21649299 11.40849811c-9.80025164-2.61340055-55.28347313 4.92525403-81.66876587 10.25257138zM3559.30038442 1224.93063435a500.81800259 500.81800259 0 0 1-50.55924824-48.34790933c-22.76673982-25.53091306-56.13785282-57.29378124-56.48965631-57.59532663l8.19200514-8.59406674c0.3518035 0.30154538 34.02446357 32.36596063 57.14300687 58.29893363a481.21749765 481.21749765 0 0 0 49.20229068 47.04120985z" fill="#231815" p-id="6340"></path><path d="M3528.291383 1178.29148609l-3.61855459-11.30798189c0.30154538 0 31.10951764-10.05154055 55.28347147-16.68555734a86.34273265 86.34273265 0 0 1 47.94584766 0l-3.8195854 11.20746732a75.93938859 75.93938859 0 0 0-40.96002575 0c-23.92266654 6.88530572-54.52960633 16.63529921-54.83115339 16.78607191zM2674.41302252 1158.94227175l-188.06432155-5.72937896 0.35180348-11.86081788 188.06432156 5.72937896-0.35180349 11.86081788zM242.59358703 460.86278839H132.47896218l63.02315855-89.76025644-76.79376828 6.78478947-1.05541219-11.81055977 102.17390863-8.99612837-64.58114859 91.92133723h87.34788673v11.86081788z" fill="#231815" p-id="6341"></path><path d="M262.74692628 674.96059918l-25.27962411-19.55024682-34.92910307-60.20872718 10.2525714-5.93040809 34.3260106 59.15331501 22.76673815 17.08761895-7.13659297 9.44844813z" p-id="6342"></path><path d="M375.92727141 290.99175445h-103.43035161l34.67781581-69.35562826c-15.93169222 2.1610808-37.94456525 3.6185546-45.23193256-3.51804006l8.39303595-8.39303593c3.51803837 3.01546218 25.12885142 2.26159706 46.13657039-1.60824648l11.65978706-2.1108227-36.58760771 73.12495557h84.23190998zM179.16836687 145.84751029l-51.61466042-11.00643649 30.00384904-39.40203904h-27.54122118v-11.81055976h51.46388772l-33.17008389 43.52316983 33.32085659 7.08633654-2.46262786 11.60952892z" fill="#231815" p-id="6343"></path><path d="M3626.24364461 1147.131712c0-6.93556218 37.54250361-64.2293434 77.0450572-74.07985317s96.74607671 13.82086786 136.24863035 0 82.97546698-37.54250361 86.94582508-73.0746991-27.64173571-84.93551699-17.79122764-109.66230677-7.89045978-35.53219549 29.6520455-26.13400549 61.21388124 98.25380697 61.21388125 98.25380864 29.65204385 65.33501203 7.89045808 110.5669446-55.93682201 78.95485076-84.9355153 89.6094821c-23.97292468 8.84535569-101.67133076 10.05154055-101.67133244 10.05154057z" fill="#FFC14D" p-id="6344"></path><path d="M3786.21391068 1172.61236691s15.07731084 1.30669943 5.93040811 25.12884978-23.67137761 34.82858682-17.94200036 63.12367477 27.89302466 52.1172366 27.89302636 52.11723656l27.79250844 18.44457656s122.27698978 1.30669943 133.13265358-11.50901268-19.49998869-88.35304077-36.53734957-93.83113081S3843.20614486 1171.75798557 3843.20614486 1171.75798557z" fill="#FFC14D" p-id="6345"></path><path d="M3787.97292987 1172.66262338c-67.34532014 0-139.0630617-7.68942896-143.63651223-8.19200514l-134.43935471-32.41621709a467.3966298 467.3966298 0 0 1-48.44842386-14.72550736l-145.74733661-53.62496853 4.07087437-11.15720917 145.99862383 53.62496851a420.65696698 420.65696698 0 0 0 47.14172445 14.32344405l133.73574603 32.36596064c0.95489594 0 166.30273578 17.8917422 229.77821405 0s74.73320373-42.56827389 94.6855105-115.09013869c18.69586545-67.79763987-10.05154055-126.59915138-37.59276005-170.32335202-20.70617359-33.22034033-71.71774154-53.42393771-108.9586981-68.19970151l-5.72937896-2.26159705c-32.96905306-13.11726087-70.36078231-12.56442487-111.82338759 1.45747379a456.89277114 456.89277114 0 0 1-70.36078233 18.19328761l-1.80927729-11.7100435a456.79225491 456.79225491 0 0 0 68.30021777-17.69071139c44.02574768-15.07731084 84.38268267-15.42911435 120.01539272-1.256443l5.72937728 2.26159704c38.74868849 15.37885622 91.82082268 36.38657687 114.68807707 72.92392472 16.73581548 26.88787061 61.36465392 98.25380697 38.94971928 179.72154374-20.50514275 74.38139854-34.627556 104.28473132-102.92777544 123.3826584-22.7164817 6.33246972-56.59017255 8.39303595-91.61979018 8.39303595z" fill="#231815" p-id="6346"></path><path d="M3365.85848908 1368.91895174a197.26148076 197.26148076 0 0 1-22.7667398-1.15592841c-6.23195515-0.75386512-16.18297947-1.70876107-29.14946597-2.96520406-106.84787541-10.55411678-390.70337605-38.54765767-507.60279209-105.54117431-147.25506683-84.78474428-179.77180016-143.88780115-186.20478779-159.92000796a415.58093858 415.58093858 0 0 1-16.5850411-52.77058714l11.55927249-2.66365868a410.2033648 410.2033648 0 0 0 15.98194866 51.01156798c4.37241972 10.80540571 33.47162926 69.0540829 180.92772691 154.09011443 114.53730271 65.93810447 406.68532644 94.68551049 502.57702179 104.18421675 13.06700275 1.25644299 23.06828517 2.26159706 29.40075658 3.01546217 54.37883364 6.28221326 171.52953689-16.63529921 246.66480222-42.0656977 66.34016609-22.41493463 73.47676073-14.72550735 76.54248103-11.40849814a8.74483948 8.74483948 0 0 1 1.35695756 1.85953542l66.49094045 17.1378771c64.0283126 16.43426841 202.08622022-7.38788189 221.13388918-18.09277303-4.62370865-13.06700275-40.90976926-66.08887883-64.4303742-95.13783023a144.44063547 144.44063547 0 0 0-43.72420065-36.23580418l5.02577028-10.65463299a154.74346498 154.74346498 0 0 1 47.79507331 39.45229715c11.45875625 14.12241493 67.49609452 89.20742213 67.4960945 104.43550566a8.29252138 8.29252138 0 0 1-3.66881269 6.58375868c-17.59019517 13.61983708-165.85041772 38.2461106-232.69316003 21.10823519l-76.59273914-19.70101953 1.15592842-2.86468946c-5.02577028-0.50257618-20.10308115 0.50257618-62.21903528 14.77576378-66.39042421 22.76673982-166.15196311 43.52316981-228.47151464 43.52317151z" fill="#231815" p-id="6347"></path><path d="M615.50573712 930.21946818c-16.58504111-7.53865458-40.20616228-25.93297466-36.38657517-66.64171315s14.07215679-68.14944339 13.36854811-92.62494425-4.77448134-63.67650908-13.87112597-80.71386994a39.45229549 39.45229549 0 0 1-1.25644299-33.3711147 135.69579601 135.69579601 0 0 1 23.97292466-31.81312464c13.36854813-11.86081789 118.55791892-89.60948377 135.69579602-97.04762377l17.03736084-7.38788189s56.2886272-91.11721401 114.03472651-128.15713974 87.39814484-48.90074364 111.11977889-48.90074532 48.90074364 1.50773026 63.72676724 24.47550087 17.03736084 28.14431359 19.24869976 42.21647042 0 117.05018868 0 117.05018865 2.96520404-73.37624449 24.42524276-87.44840295 100.51540402-25.12885142 129.61461355-34.7783287 106.69710107-17.03736084 154.84398122-20.10308114l48.14687848-2.96520405s-282.24725585 97.0476221-290.38900288 117.75379569-22.21390383 52.61981445-24.42524441 71.86851425-2.21133894 41.46260358-2.21133893 41.46260357L785.77883271 901.37154758s-51.51414415 37.29121467-66.54119857 37.19070011c-73.47676073-0.30154538-72.62237935 5.77963539-103.73189702-8.34277951z" fill="#FFC14D" p-id="6348"></path><path d="M1008.67174108 384.67211088s14.17267136-10.70489113 18.59535088 8.54381031-44.42780932 59.25383123-47.39301336 68.1494434-4.67396678 8.14174702 2.61340054 12.0618487 26.18426361 6.68427489 31.76286821 27.89302465 7.78994352 30.65719791-2.76417491 38.49739955-16.53478466 9.24741734-31.61209384 8.04123246-54.07728826-8.59406676-57.44455394-8.59406677-40.20616228 1.65850463-40.20616228 1.65850459-34.627556 12.36339408-34.07472169 15.63014517a127.35301651 127.35301651 0 0 1 29.40075658-79.758974c33.22034033-41.11080011 25.12885142-40.80925472 51.16234065-55.28347147s79.96000481-36.83889493 79.96000316-36.83889659z" fill="#FFB01F" p-id="6349"></path><path d="M839.15251229 593.29183331c0-1.40721568-6.03092433-34.92910306 15.07731087-84.38268266 22.31442005-51.91620578 51.7654331-85.43809317 92.82597506-104.73705108a583.34114983 583.34114983 0 0 1 70.9136183-28.94843683l3.51804005 11.30798355a583.94424229 583.94424229 0 0 0-69.35562994 28.2950863c-38.29636874 18.24354572-65.93810447 49.6043523-86.94582509 98.75638485-19.7010195 45.93553956-14.52447652 77.29634614-14.47421843 77.59789151z" fill="#FFFFFF" p-id="6350"></path><path d="M852.92312204 551.17587917l-10.05154057-6.58375866c14.27318759-21.4600387 49.10177443-42.11595414 50.5592499-42.97033552l5.98066623 10.05154059c0.05025811 0.3518035-33.77317632 20.25385382-46.48837556 39.50255359z" fill="#FFFFFF" p-id="6351"></path><path d="M850.1589488 566.90653888l-9.69973706-6.83504758a72.82341018 72.82341018 0 0 1 40.20616228-25.12884974 32.61724789 32.61724789 0 0 0 13.77061141-6.98582194c6.63401679-5.02577028 12.41365219-8.79509758 27.84276654-6.53350055l23.42008868 3.56829647-1.80927731 11.76030333-23.42008867-3.61855461c-11.35824002-1.75901919-13.92138412 0.40206162-18.64560734 4.1211308a43.82471687 43.82471687 0 0 1-17.94200034 9.34793355 62.92264227 62.92264227 0 0 0-33.72291819 20.30411027z" fill="#FFFFFF" p-id="6352"></path><path d="M96.29341613 1369.97436224c-7.53865458 0-13.67009519 0-18.14302948-0.50257618-45.88528144-3.81958542-50.71002091-5.72937728-57.94713181-22.56570901a16.48452655 16.48452655 0 0 1 0.60309245-13.36854811c10.05154055-24.32472818 61.56568473-75.88913046 95.08757378-90.01154539a159.41743177 159.41743177 0 0 1 60.30924176-11.45875625 55.28347313 55.28347313 0 0 0 18.34406195-2.21133892c6.63401679-3.31700757 19.24869977-3.92009999 33.92394898-4.62370866 13.67009519-0.70360701 30.70745603-1.50773026 36.93941118-5.0257703 13.82086786-7.94071621 185.70220993-104.73705107 185.70220827-104.73705105 1.8092773-1.00515406 177.15839961-98.15329241 236.21120004-149.01408603s458.29998684-375.52555065 462.37086118-378.79230176l7.48839647 9.1971592c-4.02061625 3.26675111-402.81548289 327.27815593-462.06931246 378.54101284s-231.03465707 146.60171796-238.32202441 150.37104525-171.73056769 96.74607671-185.55143552 104.68679294c-8.69458302 5.02577028-25.12885142 5.72937728-42.26672855 6.58376033-11.60952895 0.55283433-24.77704791 1.25644299-29.1997241 3.4175238a58.70099694 58.70099694 0 0 1-23.16880142 3.46778024 150.0694982 150.0694982 0 0 0-56.13785282 10.50386031c-37.74353442 15.93169222-91.16747214 76.39170667-89.60948376 87.29762859 5.02577028 11.20746732 5.27705922 12.31313763 48.29765285 15.93169222 46.33760119 3.71906917 293.80652667-15.63014516 296.26915285-15.78091954l150.77310687-27.59147761c0.75386512-0.3518035 169.51922878-61.26413936 233.74857387-88.55407156s263.04881252-131.07208736 265.05912062-132.12749954l5.47809004 10.50386031c-2.01030812 1.05541218-201.03080804 105.13911269-265.86324557 132.57981761s-233.64805762 88.35304077-235.35681865 89.00639132l-152.48186794 27.89302466c-9.59922083 0.80412325-208.01662998 16.38401027-280.48823667 16.38401029z" fill="#231815" p-id="6353"></path><path d="M511.62306745 958.61507071l-0.75386514-11.81055976 336.72660407-21.71132762 0.80412324 11.81055974-336.77686217 21.71132764zM807.99273653 1076.92170069l-298.27946264-80.96515718 3.06572029-11.40849813 298.27946266 80.96515718-3.06572031 11.40849813z" fill="#231815" p-id="6354"></path></svg>