<?xml version="1.0" standalone="no"?><!DOCTYPE svg PUBLIC "-//W3C//DTD SVG 1.1//EN" "http://www.w3.org/Graphics/SVG/1.1/DTD/svg11.dtd"><svg t="1723100927217" class="icon" viewBox="0 0 1462 1024" version="1.1" xmlns="http://www.w3.org/2000/svg" p-id="12134" xmlns:xlink="http://www.w3.org/1999/xlink" width="285.546875" height="200"><path d="M6.509714 1010.688h1449.325715V6.290286H6.509714v1004.397714z m1454.884572 7.314286v-7.314286 7.314286zM0.512 1016.905143V0h1461.321143v1016.905143H0.438857z" fill="#353636" p-id="12135"></path><path d="M2.925714 2.486857h1455.323429v1010.688H2.852571z" fill="#009945" p-id="12136"></path><path d="M577.097143 321.097143h-2.413714l-7.168 9.947428-3.657143 13.750858 6.070857 8.777142 9.508571-2.486857 7.314286-13.750857-7.314286 6.217143-7.094857 1.243429-2.413714-7.460572 7.168-16.237714z m-183.442286-55.003429v14.994286l-2.340571 6.290286a64.585143 64.585143 0 0 0 8.338285-18.797715l-2.340571-12.434285-7.241143 2.486857-3.584 7.460571h7.168z m187.026286 10.020572l7.314286-5.046857-2.413715 10.020571h-2.413714l-2.486857-4.973714z m3.657143 19.968c-8.411429 13.750857-21.650286 22.454857-34.816 29.988571l-11.995429 3.730286v-2.486857l9.581714-7.460572c10.825143-8.777143 21.577143-17.554286 29.988572-29.988571-5.997714-5.046857-5.997714-13.750857-3.584-20.041143l8.411428-9.947429 10.752 1.243429 2.413715 12.434286-3.657143 12.507428 1.243428 6.290286-8.411428 3.730286z m-124.708572-19.968l8.411429-3.730286 3.584 3.657143h4.754286l3.657142-6.217143-2.413714-6.217143-4.827428 7.460572-3.584-11.190858h-1.170286l-5.997714 9.947429h-3.657143l-1.170286-8.777143-1.170286-2.413714h-1.243428l-1.170286 9.947428 5.997714 7.533715zM385.316571 364.763429l-9.581714-7.460572a98.011429 98.011429 0 0 1-9.581714-44.982857 65.828571 65.828571 0 0 1 3.584-21.211429h2.340571v19.968c1.243429 10.020571 2.413714 18.724571 4.827429 27.501715l5.997714 7.460571 4.827429-3.730286c4.754286-11.264 3.584-22.454857 5.924571-33.718857a61.147429 61.147429 0 0 1 9.654857-19.968l8.338286-7.533714 5.997714 4.973714-1.170285 11.264-3.657143 16.237715 1.243428 13.750857 1.170286 4.973714 7.241143 12.507429 7.168 2.486857c-1.170286-8.777143-1.170286-16.237714-2.413714-23.698286-1.170286-7.533714-1.170286-14.994286-1.170286-22.528-1.170286-7.460571-3.657143-13.750857-3.657143-19.968V269.897143l6.070857-9.947429 5.997714 7.460572c3.584 6.290286 7.168 13.750857 7.168 21.211428l-4.754285 5.046857 3.584 37.449143 1.170285 7.533715v6.217142l9.581715-17.481142c-1.170286-8.777143-3.584-18.724571-4.754286-27.501715a31.890286 31.890286 0 0 1 1.170286-21.211428l2.413714-1.243429a25.234286 25.234286 0 0 1 8.411429 24.941714c-1.243429 10.020571 1.170286 18.797714 3.584 28.745143l5.997714 10.020572 13.165714 2.486857 3.657143-6.217143a185.344 185.344 0 0 0-8.484571-35.035429l-3.584-12.434285 3.657142-6.290286 5.924572-6.217143 8.411428 8.777143 4.827429 7.460571v6.217143l-5.997714 1.243429c2.340571 10.020571 4.754286 18.797714 5.997714 28.745143 0 7.533714 1.170286 16.237714-3.657143 22.528l-14.336 9.947428-16.822857-4.973714-4.754286-12.434286h-1.243428l-3.584 7.460572-7.168 9.947428c0 8.777143 1.170286 17.554286 1.170285 26.258286 0 12.434286 2.413714 25.014857 1.243429 38.765714l-4.827429 12.434286h-1.170285l-1.243429-17.481143-1.170286-13.750857c-1.170286-12.434286-3.657143-26.185143-4.827428-39.936a23.405714 23.405714 0 0 1-19.163429-8.777143c-5.997714-8.777143-7.168-19.968-7.168-31.232l1.170286-14.994286v-8.777142h-1.170286l-5.997714 20.041142-1.243429 8.777143a54.637714 54.637714 0 0 1-7.168 23.698286l-7.168 7.460571z m706.048-7.460572c-2.340571-21.211429-5.997714-41.252571-4.754285-62.464l5.997714 2.486857-1.243429-7.460571-10.752-26.258286-3.657142-6.217143-3.510858 2.486857-7.241142 9.947429 1.243428 11.264c1.170286 8.777143 2.340571 18.724571 3.584 27.501714l1.170286 11.264 1.243428 14.994286c3.584 27.428571 5.924571 56.173714 8.338286 84.918857 1.243429 13.750857 1.243429 28.745143-3.584 41.252572a69.193143 69.193143 0 0 1-20.406857 28.672c-7.168 6.290286-14.336 11.264-21.577143 16.237714l-5.997714 6.290286 16.822857-2.486858a53.028571 53.028571 0 0 0 31.158857-20.041142 84.114286 84.114286 0 0 0 14.409143-33.645715c2.413714-11.264 2.413714-23.771429 2.413714-35.035428 0-19.968-1.243429-42.422857-3.657143-63.707429z m-89.892571 144.896l3.657143-11.190857v-2.56l-13.238857-1.243429-2.413715 6.290286 5.997715 4.973714-8.411429 12.434286 5.997714 2.56 15.579429-7.533714V501.028571l-7.168 1.243429z m-21.577143 246.125714c-7.168 1.243429-15.579429 0-22.747428 0l-5.997715-3.730285-4.827428 2.486857v2.486857c-7.168 1.243429-15.579429 0-22.747429 1.243429l-3.657143-6.217143v-6.290286c20.48 0 40.813714-1.243429 61.220572-1.243429l-1.243429 11.264z m19.163429-26.258285l-15.579429-4.973715c-21.577143 0-41.910857 1.243429-63.488 1.243429V710.948571l3.584-8.777142-5.997714-8.777143h-3.657143l-4.754286 8.777143 4.827429 10.020571v4.973714c-77.970286 1.243429-155.867429 1.243429-232.594286 1.243429H637.074286c-39.570286 0-79.140571-1.243429-118.710857-1.243429-20.406857 0-39.497143-1.243429-58.733715 0 4.754286 8.777143 13.165714 13.750857 21.577143 17.554286 14.409143 4.900571 29.988571 6.217143 44.324572 7.460571 15.579429 1.243429 32.402286 0 49.152 1.243429h154.697142c46.738286 0 94.646857-1.243429 141.458286-2.486857 14.336 0 29.988571-1.316571 44.324572-1.316572v5.046858l-4.827429 7.460571 7.241143 12.507429h1.170286l4.827428-7.460572c7.168 0 15.579429-1.316571 22.747429 0l5.997714 4.973714 5.997714-4.973714h25.161143l5.997714 4.973714 10.825143-2.486857 4.754286-18.724571-5.997714-18.797714zM387.730286 494.738286l-5.997715-5.046857c-2.413714-8.777143 0-17.481143 2.340572-26.185143l1.243428-18.724572H384l-4.754286 16.237715c-2.413714 7.460571-3.657143 14.994286-3.657143 23.698285l1.243429 17.554286 9.581714 7.460571 10.825143-10.020571v-13.750857l-9.581714 8.777143z m23.917714-98.742857l11.995429-4.973715V381.074286h-3.584a84.845714 84.845714 0 0 0-23.990858 11.264 81.700571 81.700571 0 0 0-25.161142 25.014857l10.825142-7.533714a319.634286 319.634286 0 0 0 29.988572-13.750858z m62.390857 8.777142l13.165714-2.486857-5.997714-7.533714-5.997714-2.486857-1.170286 1.243428v11.264z m31.158857 86.235429c-7.241143 7.460571-16.822857 11.190857-26.331428 14.921143-13.238857 5.046857-26.404571 8.777143-39.643429 8.777143-8.338286 0-16.822857-1.243429-22.747428-6.217143l-7.168-10.020572c-5.997714-12.434286-7.241143-26.258286-5.997715-40.009142 1.170286-11.190857 2.340571-23.698286 8.338286-33.645715v34.962286c1.243429 9.947429 2.413714 19.968 9.581714 27.428571 4.827429 6.290286 13.165714 8.777143 21.577143 8.777143a65.389714 65.389714 0 0 0 21.577143-3.730285c11.995429-3.803429 23.990857-10.020571 33.645714-18.797715a40.813714 40.813714 0 0 0 13.165715-18.724571l1.170285-18.724572v-26.258285l-7.168 5.046857c0 7.460571 1.170286 16.237714-1.243428 23.698286-4.754286 14.994286-16.822857 26.258286-28.745143 33.718857-9.581714 5.046857-20.406857 11.264-32.402286 8.777143-9.508571-1.243429-16.749714-8.777143-20.333714-17.554286-4.827429-7.460571-4.827429-14.921143-4.827429-22.454857 0-7.460571 1.243429-13.750857 2.413715-21.211429l4.827428-7.460571v11.190857a49.225143 49.225143 0 0 0 8.338286 33.718857l15.579428 5.046857a43.593143 43.593143 0 0 0 21.577143-10.020571l17.993143-16.237715 3.657143-6.217142 1.170286-11.264-15.579429 3.730285-14.409143-2.486857-2.413714-4.973714v-17.554286l5.997714-16.237714 9.581715-8.777143 10.825142 5.12 13.165715 17.408 9.581714-6.217143c0-18.724571-3.584-38.765714-4.754286-57.490286l-2.413714-18.724571v-6.217143l-1.170286-18.797714V282.331429l-2.413714-8.777143 5.997714-7.460572 5.997715-4.973714 4.754285 12.434286c2.413714 7.533714 4.827429 15.067429 8.411429 22.528l1.170286 10.020571-3.584 2.486857-4.754286-2.486857c1.170286 13.750857 2.340571 28.745143 2.340571 42.422857 1.243429 11.264 1.243429 23.771429 2.413715 35.035429l9.581714-8.777143 3.657143 3.730286 1.170285 16.237714 7.168 5.046857 10.825143-7.533714 7.168-17.481143h1.170286l3.657143 17.554286 7.168 4.973714 4.827428-7.533714-1.243428-10.020572v-3.657143l7.168-5.12 2.413714 12.580572-1.170286 18.724571-7.168 6.217143-13.165714-2.486857-4.827428-4.973714h-2.413715l-5.997714 6.217143-15.579429 3.730285-11.995428-8.777143h-1.170286v21.284572c1.170286 13.750857 1.170286 27.501714-2.413714 41.252571a52.516571 52.516571 0 0 1-15.579429 26.258286z m502.272-111.177143c1.170286 19.968 2.413714 39.936 2.413715 59.977143 0 11.190857-1.243429 22.454857-7.168 31.158857a18.797714 18.797714 0 0 1-16.822858 11.264 32.109714 32.109714 0 0 1-22.747428-10.020571l-7.241143-9.947429-4.754286 2.486857-9.581714 17.481143a216.137143 216.137143 0 0 1-15.579429 28.745143l-5.997714 3.730286-10.825143-3.730286c-4.754286-5.046857-11.995429-8.777143-14.409143-16.237714-3.584-11.264-1.170286-22.528 1.243429-33.718857l4.754286-16.237715h1.243428l1.170286 18.724572 2.413714 16.237714 2.413715-11.264c2.340571-17.481143-2.413714-34.962286-3.657143-52.443429-1.170286-12.507429-3.584-25.014857-4.754286-37.522285-2.413714-18.724571-4.827429-38.765714-7.168-57.417143-1.243429-7.533714-1.243429-14.994286-3.657143-22.528a57.417143 57.417143 0 0 1-2.340571-24.941714l8.338285-17.554286 8.411429-3.657143 5.997714 4.973714 4.827429 13.677715c2.340571 8.777143 5.997714 16.237714 10.752 23.771428l1.243428 12.434286-9.654857 5.12c0 9.947429 2.413714 21.211429 2.413715 31.158857 1.243429 13.750857 3.657143 27.501714 4.827428 41.252571 1.170286 8.777143 2.413714 17.481143 2.413714 26.185143 2.340571 13.750857 5.997714 27.501714 3.584 41.252572a73.069714 73.069714 0 0 1-8.411428 27.501714l-8.411429 6.217143-5.997714-2.486857 5.997714 10.020571h7.241143l5.997714-8.777143c4.754286-11.264 10.752-22.454857 16.749715-32.475428l8.411428-12.434286h7.168l13.165715 16.164571 10.825142 5.046858 8.411429-5.046858 4.754286-13.750857c1.243429-23.698286-1.170286-48.713143-2.413715-72.411428 0-6.290286-1.170286-13.750857-1.170285-20.041143l-1.170286-13.677714a868.864 868.864 0 0 1-29.988571-40.009143l-7.168-14.994286V261.12l7.168 3.730286c4.754286 7.533714 11.995429 12.434286 17.993142 18.724571l2.340572 3.730286v2.56h-3.584l10.825143 16.237714c0-6.290286-1.243429-13.750857-2.413715-20.041143l-2.413714-12.434285 7.241143-13.750858 3.584 3.730286c3.584 10.020571 7.168 21.211429 10.752 31.232v4.973714l-4.754286-2.486857c0 11.264 1.170286 22.528 2.413715 32.475429 7.168 10.020571 14.336 21.211429 21.577142 31.232-1.243429-9.947429-3.657143-19.968-4.827428-29.988572-2.413714-16.237714-3.657143-33.645714-4.827429-49.956571l-1.170285-8.777143 5.997714-12.434286 3.657143-2.486857 4.754285 12.434286c2.340571 8.777143 3.584 16.237714 5.997715 25.014857v7.460572l-2.413715 1.316571-2.413714-1.316571v11.264s2.413714 27.501714 3.657143 40.009142c1.170286 8.777143 1.170286 18.724571 2.340571 27.428572 4.827429 7.533714 9.581714 14.994286 14.409143 23.771428 7.168 11.264 16.822857 22.454857 20.333715 36.205715l1.243428 18.797714h-1.243428l-7.168-12.507429c-8.411429-12.507429-16.822857-25.014857-25.161143-36.278857 1.170286 7.533714 0 16.237714 1.170285 23.771429l-1.170285 14.994286-3.657143 12.434285-2.340572-4.973714c0-9.947429 1.170286-19.968 0-29.988571l-3.657142-24.941715 2.413714-7.533714c-8.338286-12.434286-16.749714-23.698286-23.917714-34.962286 0 6.290286 1.170286 12.434286 1.170285 19.968z m-35.986285-2.56c-8.338286 8.777143-19.163429 14.994286-27.574858 23.771429l-2.340571 6.217143 8.338286-4.973715c7.241143-6.290286 14.409143-10.020571 21.577143-14.994285l9.581714-4.973715V372.297143l-9.508572 4.973714z m-110.226286-88.649143c1.170286 12.434286 3.584 23.698286 4.754286 36.205715 2.413714 18.724571 3.657143 37.449143 4.827428 56.173714 1.170286 18.797714 1.170286 37.522286 2.340572 55.003428a63.049143 63.049143 0 0 1 0 21.211429 56.539429 56.539429 0 0 1-11.922286 27.501714 110.811429 110.811429 0 0 1-28.818286 25.014857l-17.993143 7.460572v2.486857l13.165715 1.243429c7.241143-1.243429 15.652571-1.243429 22.820571-4.973715 8.411429-4.973714 14.409143-13.750857 20.406857-21.211428a62.610286 62.610286 0 0 0 13.165714-34.962286c1.170286-12.507429 1.170286-25.014857 1.170286-37.522286 0-20.041143-1.170286-40.082286-3.584-59.977143-2.413714-21.211429-4.754286-41.179429-3.584-62.464l5.997714 1.243429v-6.217143l-4.827428-17.554286-1.170286-4.900571-3.657143-10.020571-3.510857 1.243428-8.411428 10.020572-1.170286 9.947428v5.046857zM555.52 457.142857l2.413714-1.243428 4.754286-12.434286v-13.750857l-10.752-2.56v10.020571l7.168 1.243429v11.264l-3.584 7.460571z m285.257143-141.165714l1.243428 1.243428 3.657143 8.777143 4.754286-10.020571 1.170286-2.486857h1.243428l1.170286 14.994285-1.170286 2.486858-4.827428 1.243428-5.997715-3.657143-8.338285 3.657143-1.243429-13.750857h1.243429l2.340571 7.533714 2.413714-1.243428 2.413715-8.777143z m97.133714 29.988571h3.657143l2.340571-2.486857 9.654858 16.237714 3.584 6.290286 2.340571-5.046857v-23.698286l2.413714-5.046857 7.241143 1.243429v-4.973715l-3.657143-7.460571-2.340571-1.243429-8.411429 8.777143 1.170286 16.164572-1.170286 7.533714-4.827428-10.020571-7.168-13.750858-3.657143 1.243429-1.170286 5.046857v11.190857z m37.229714 83.748572l5.997715-7.533715c2.340571-7.460571-1.243429-16.237714-5.997715-22.454857l-4.827428-1.243428-4.827429 8.777143 9.654857 9.947428v12.434286z m79.067429-119.954286a81.773714 81.773714 0 0 0-7.168-22.528l-1.170286-6.217143 5.997715-6.217143c5.924571 8.777143 7.168 19.968 8.338285 29.988572l-2.413714 16.237714h-1.170286l-2.413714-11.264z m-347.648 71.168h-2.413714l-3.584-7.460571-3.584-3.730286-1.170286 9.947428-1.243429 5.046858h-2.340571l-4.827429-12.507429-1.170285-2.486857 1.170285 18.724571 5.997715 2.486857 4.827428-6.217142h1.170286l4.754286 3.730285 7.241143-6.217143-3.657143-16.237714-1.170286 11.190857v3.730286z m34.816 0l13.165714 6.290286 3.584 3.730285-16.822857 3.730286-1.170286-12.434286 1.243429-1.316571z m-135.533714 12.507429c2.413714 7.533714 7.241143 13.750857 9.654857 21.211428l2.340571 13.824-8.338285 13.677714-22.820572 20.041143v-23.771428h-1.170286a81.700571 81.700571 0 0 0-9.581714 23.771428l-2.413714 9.947429-1.170286 1.243428c-14.409143 10.020571-28.818286 18.797714-43.154286 27.501715l-19.236571 10.020571v2.486857h4.827429c20.333714-6.217143 39.497143-12.434286 57.563428-21.211428 1.170286 7.460571 2.340571 14.994286 7.168 19.968 5.997714 6.217143 14.409143 7.460571 22.747429 6.217143a62.976 62.976 0 0 0 33.645714-19.968c9.508571-8.777143 16.749714-19.968 23.917714-29.988572a64.365714 64.365714 0 0 0 17.993143 28.745143c13.165714 12.434286 31.158857 17.554286 47.908572 19.968l9.654857-2.486857 2.340571-13.750857-10.752-4.973715-13.165714-10.020571v-9.947429l14.336-8.777142c15.579429-6.217143 31.158857-11.264 47.981714-14.994286l13.165714-3.730286 5.997715-11.264 1.170285-7.460571h-13.165714c-17.993143 1.243429-37.156571 1.243429-55.149714 1.243428h-22.747429c11.995429-6.290286 25.161143-11.264 38.326857-16.237714l8.411429 1.243429v-3.803429c7.168-2.486857 14.409143-4.973714 19.163429-11.190857l7.241142-16.237714-13.165714-16.237715a33.645714 33.645714 0 0 0-21.650286-8.777143l-10.752 6.290286-8.411428 17.481143 3.657143 14.994286-32.402286 11.190857-14.409143 7.533714-7.168 13.750857-2.413714 11.190857 7.168 2.56c7.241143 0 14.409143 0 21.577143 1.243429 7.241143 0 14.409143 1.243429 19.236571 6.217143l2.340572 2.486857a34.962286 34.962286 0 0 0-21.577143 20.041143v16.237714a44.105143 44.105143 0 0 1-26.331429-18.797714c-5.997714-11.190857-7.241143-24.941714-9.581714-37.449143-1.243429-8.777143-3.657143-16.237714-4.827429-25.014857v1.243428c-2.413714-16.237714-8.411429-31.232-14.409143-46.226285l-4.754285-8.777143-5.997715 10.093714-1.243428 13.677714c4.827429 12.507429 8.411429 25.014857 11.995428 37.522286l4.827429 16.237714 3.657143 12.434286a191.634286 191.634286 0 0 1-25.234286 36.278857c-8.411429 7.460571-16.822857 13.750857-27.574857 16.237715l-14.409143-2.486858-3.584-12.507428c10.825143-6.217143 20.406857-13.750857 28.745143-23.698286 7.241143-7.533714 13.165714-14.994286 15.652571-25.014857a78.774857 78.774857 0 0 0 0-23.771429l-1.243428-3.657142-4.754286-13.824 4.754286-1.243429-4.754286-11.264-9.654857-11.190857H607.085714l-4.827428 8.777143-2.340572 9.947428 5.924572 4.973715z m154.697143 116.224l1.170285-14.994286-9.581714 2.486857 5.997714-4.973714 11.995429-5.046857-2.413714 16.237714 1.243428 2.486857c7.168-1.243429 13.165714-6.217143 20.333714-8.777143h4.827429l-4.827429 5.12c-5.997714 4.973714-11.995429 11.190857-20.333714 9.947429l-8.411428-2.486857zM622.665143 352.329143l-11.995429-8.777143a59.538286 59.538286 0 0 1-10.752-39.936c1.170286-8.777143 2.340571-17.554286 7.168-25.014857h1.170286l-2.413714 13.750857c0 7.460571 0 16.237714 1.243428 23.698286l1.170286 6.290285 9.581714 12.434286 7.241143-6.217143c3.584-11.264 8.338286-21.211429 13.165714-32.475428 3.657143-7.460571 7.168-14.994286 11.995429-21.211429l5.997714-2.486857 3.584 4.973714-1.170285 11.264c-2.413714 12.434286-1.243429 24.941714-1.243429 37.449143l5.997714 13.750857h13.165715l13.165714-11.264 4.827428-17.481143c0-12.434286-2.340571-23.771429-4.754285-36.205714l-1.243429-11.264 5.997714-12.434286h2.413715c3.657143 6.217143 4.827429 13.677714 5.997714 19.894858 1.170286 8.777143 2.413714 18.797714 2.413714 28.745142 1.170286 10.020571 3.584 20.041143 9.581715 27.501715l9.581714 7.533714 7.168-5.046857v-19.968c-1.170286-8.777143-3.584-16.237714-5.997714-25.014857l-4.754286-13.750857 4.754286-8.777143 3.657142-7.460572 7.168 3.803429 10.752 18.724571 1.243429 7.460572h-4.827429l-5.997714-3.657143 3.657143 9.947428c2.340571 7.460571 2.340571 13.750857 3.584 21.211429a52.077714 52.077714 0 0 1-5.997714 29.988571l-16.822857 8.777143c-9.508571-2.56-15.579429-10.020571-20.333715-16.237714a42.715429 42.715429 0 0 1-22.820571 21.211429l-19.163429 1.243428-9.581714-16.237714a76.214857 76.214857 0 0 1-1.170286-28.745143v-6.217143h-1.243428l-4.754286 9.947429c-3.657143 10.020571-5.997714 18.797714-9.654857 28.745143l-10.752 7.533714z m207.36-77.531429l-3.584-3.657143 3.657143-10.020571 7.168 6.217143c4.754286 8.777143 7.168 20.041143 2.413714 29.988571l-4.827429 6.290286v-18.797714l-4.827428-9.947429zM753.371429 282.331429v-22.454858l1.243428-2.486857 5.997714 1.243429c8.411429 7.460571 16.822857 14.994286 23.990858 22.454857l4.754285 8.777143h-9.581714c4.827429 8.777143 10.825143 16.237714 16.822857 24.941714l1.170286 1.243429c-1.243429-9.947429-3.657143-19.968-2.413714-31.232l-3.657143-8.777143 3.657143-9.947429 4.827428-4.973714 4.754286 4.973714c3.657143 10.020571 8.411429 18.724571 10.825143 28.745143l2.340571 11.264-1.170286 2.486857-7.168-1.243428c0 8.777143 0 16.237714 1.170286 24.941714l1.243429 11.264c8.338286 13.750857 16.749714 26.258286 23.917714 40.009143 8.411429 14.994286 16.822857 29.988571 22.820571 46.226286 3.584 9.947429 7.168 19.968 7.168 29.988571h-2.413714l-8.338286-17.554286a699.465143 699.465143 0 0 0-43.154285-77.458285c0 7.533714 1.170286 16.310857 1.170285 23.771428 1.170286 16.237714 3.657143 31.232 3.657143 47.469714 0 16.237714-1.243429 33.718857-7.314285 49.956572l-4.754286 5.046857 1.243428-11.264c3.584-10.020571 2.340571-21.211429 2.340572-32.475429a727.478857 727.478857 0 0 0-8.338286-73.728l-1.243428-11.264c-1.170286-7.460571-1.170286-14.994286-2.413715-21.211428-10.752-17.554286-22.674286-33.718857-34.742857-51.2L753.371429 282.331429z m-76.726858 4.973714v16.310857h1.243429l2.413714-8.777143c0-8.777143 1.170286-17.554286-1.243428-26.258286l-4.754286-7.460571-4.827429 4.973714 1.243429 6.290286 5.924571 14.921143z" fill="#FFFFFF" p-id="12137"></path></svg>