<?xml version="1.0" standalone="no"?><!DOCTYPE svg PUBLIC "-//W3C//DTD SVG 1.1//EN" "http://www.w3.org/Graphics/SVG/1.1/DTD/svg11.dtd"><svg t="1722168799584" class="icon" viewBox="0 0 1024 1024" version="1.1" xmlns="http://www.w3.org/2000/svg" p-id="9577" xmlns:xlink="http://www.w3.org/1999/xlink" width="200" height="200"><path d="M514.56 518.4m-473.6 0a473.6 473.6 0 1 0 947.2 0 473.6 473.6 0 1 0-947.2 0Z" fill="#C546F2" opacity=".1" p-id="9578"></path><path d="M474.88 334.08c1.28-2.56 2.56-6.4 3.84-8.96 0-1.28 1.28-2.56 1.28-5.12-1.28 1.28-1.28 2.56-1.28 5.12-1.28 2.56-2.56 6.4-3.84 8.96z" fill="#00E89D" p-id="9579"></path><path d="M336.64 390.4h353.28v355.84H336.64V390.4z" fill="#FFE9C5" p-id="9580"></path><path d="M683.52 768H343.04c-17.92 0-32-14.08-32-32V327.68c0-17.92 14.08-32 32-32h58.88v20.48c0 11.52 8.96 20.48 20.48 20.48 11.52 0 20.48-8.96 20.48-20.48v-20.48h142.08v20.48c0 11.52 8.96 20.48 20.48 20.48 11.52 0 20.48-8.96 20.48-20.48v-20.48h58.88c17.92 0 32 14.08 32 32v408.32c-1.28 17.92-15.36 32-33.28 32z" fill="#C546F2" p-id="9581"></path><path d="M401.92 276.48c0-11.52 8.96-20.48 20.48-20.48 11.52 0 20.48 8.96 20.48 20.48v20.48h-40.96v-20.48zM583.68 276.48c0-11.52 8.96-20.48 20.48-20.48s20.48 8.96 20.48 20.48v20.48h-40.96v-20.48z" fill="#C546F2" opacity=".5" p-id="9582"></path><path d="M593.92 473.6H430.08c-6.4 0-14.08-5.12-14.08-14.08 0-7.68 5.12-14.08 14.08-14.08h165.12c6.4 0 14.08 5.12 14.08 14.08-1.28 7.68-7.68 14.08-15.36 14.08zM593.92 559.36H430.08c-6.4 0-14.08-5.12-14.08-14.08 0-7.68 5.12-14.08 14.08-14.08h165.12c6.4 0 14.08 5.12 14.08 14.08-1.28 8.96-7.68 14.08-15.36 14.08zM593.92 646.4H430.08c-6.4 0-14.08-5.12-14.08-14.08s5.12-14.08 14.08-14.08h165.12c6.4 0 14.08 5.12 14.08 14.08s-7.68 14.08-15.36 14.08z" fill="#FFFFFF" p-id="9583"></path></svg>