<?xml version="1.0" standalone="no"?><!DOCTYPE svg PUBLIC "-//W3C//DTD SVG 1.1//EN" "http://www.w3.org/Graphics/SVG/1.1/DTD/svg11.dtd"><svg t="1723100996230" class="icon" viewBox="0 0 1024 1024" version="1.1" xmlns="http://www.w3.org/2000/svg" p-id="14201" xmlns:xlink="http://www.w3.org/1999/xlink" width="200" height="200"><path d="M64.2 512.3a448.1 448.1 0 1 0 896.2 0 448.1 448.1 0 1 0-896.2 0z" fill="#FCFCFC" p-id="14202"></path><path d="M342.6 519.7a160 162.1 0 1 0 320 0 160 162.1 0 1 0-320 0z" fill="#003478" p-id="14203"></path><path d="M369.9 430c25.9-39.9 75.6-72.8 131.9-73 6.4 0 52.6 0.4 93.5 29.4 0.7 0.5 1.3 1 1.8 1.3 28.8 21.1 46.3 50.1 56 77.3 17.6 49.3 7.9 97.3-6.1 125.3 0 0-2.7 8.2-4.2 7.9-3-0.6 11.2-36.4-2-68.9-1.1-2.7-12.4-29.3-39.5-40.4-11.7-4.8-22.2-5.1-28.7-5.3-6.7-0.2-23.6-0.5-41 8.1-8.8 4.3-10.9 7.5-30.7 25.7-20.1 18.4-30.1 27.6-35.2 30.4-17.8 9.7-42.2 12-64.1 3.9-24.5-9-46.1-31.1-50.7-58.7-4.3-27 9.5-48.3 19-63z" fill="#C60C31" p-id="14204"></path><path d="M255 258c7.2 4.7 14.3 9.3 21.5 14-29.5 45.2-59 90.3-88.5 135.5-7.2-5.3-14.3-10.7-21.5-16L255 258z m33.5 21l22 15-89 134-22.5-15.5z m32.5 22.5l21.6 15-87.8 134-22.3-14.5z m371.7-7.2L715 279l88.7 134-21 14.7zM726 272l22.2-15 40.8 61-21.3 15.7z m48.7 72.3l22-14.3 40.3 59.7-21.3 16.3z m-116-28l21.6-14.3 41 60.7-20.6 15.3z m48.8 73.7l21.9-14.7 39.7 60-20.9 15z m40.2 196l23.3 14.3-41.6 62-22.6-15.3z m34.3 22l22 14.7-40.5 61-22.2-15z m34.3 22.3l21.4 14-39.8 62.4-23.3-15.4z m-48.2 73.6l20.7 13.8-41.1 62-22-15.4z m-33.3-22.1l19.6 13.5-38.8 61.4-22.7-14.9z m-34.9-23.1l21.8 14.3-41.1 61.3-22.4-15.1z m-467.4-58.2l22.3-14.5 87.8 133.2-20.1 15.1zM199 624.2l22.5-15.7 41.4 61-22.4 14.5z m48.5 72.3l21.2-14.7 41.8 59.7-22.9 15.2z m-81-50.3l22.2-15.9c29.3 44.4 58.6 88.8 87.8 133.2L254.8 779c-29.5-44.2-58.9-88.5-88.3-132.8z" p-id="14205"></path></svg>