<?xml version="1.0" standalone="no"?><!DOCTYPE svg PUBLIC "-//W3C//DTD SVG 1.1//EN" "http://www.w3.org/Graphics/SVG/1.1/DTD/svg11.dtd"><svg t="1723100908835" class="icon" viewBox="0 0 1024 1024" version="1.1" xmlns="http://www.w3.org/2000/svg" p-id="11070" xmlns:xlink="http://www.w3.org/1999/xlink" width="200" height="200"><path d="M36.977778 179.2h947.2v631.466667H36.977778z" fill="#CF281B" p-id="11071"></path><path d="M196.266667 241.777778l-28.444445 91.022222 45.511111 14.222222-17.066666-105.244444z m0 0" fill="#F4DB26" p-id="11072"></path><path d="M196.266667 241.777778l28.444444 91.022222-45.511111 14.222222 17.066667-105.244444z m0 0" fill="#F4DB26" p-id="11073"></path><path d="M287.288889 307.2H190.577778v48.355556l96.711111-48.355556z m0 0" fill="#F4DB26" p-id="11074"></path><path d="M287.288889 307.2l-76.8 56.888889-28.444445-36.977778 105.244445-19.911111z m0 0" fill="#F4DB26" p-id="11075"></path><path d="M105.244444 307.2l76.8 56.888889 28.444445-36.977778-105.244445-19.911111z m0 0" fill="#F4DB26" p-id="11076"></path><path d="M105.244444 307.2H199.111111v48.355556l-93.866667-48.355556z m0 0" fill="#F4DB26" p-id="11077"></path><path d="M250.311111 415.288889l-28.444444-91.022222-45.511111 14.222222 73.955555 76.8z m0 0" fill="#F4DB26" p-id="11078"></path><path d="M250.311111 415.288889l-76.8-56.888889 28.444445-36.977778 48.355555 93.866667z m0 0" fill="#F4DB26" p-id="11079"></path><path d="M139.377778 415.288889l76.8-56.888889-28.444445-36.977778-48.355555 93.866667z m0 0" fill="#F4DB26" p-id="11080"></path><path d="M139.377778 415.288889l28.444444-91.022222 45.511111 14.222222-73.955555 76.8z m187.733333-156.444445l31.288889-5.688888-2.844444-14.222223-28.444445 19.911111z m0 0" fill="#F4DB26" p-id="11081"></path><path d="M327.111111 258.844444l19.911111-22.755555 11.377778 11.377778-31.288889 11.377777z m0 0" fill="#F4DB26" p-id="11082"></path><path d="M329.955556 221.866667l17.066666 28.444444 14.222222-8.533333-31.288888-19.911111z m0 0" fill="#F4DB26" p-id="11083"></path><path d="M329.955556 221.866667l28.444444 11.377777-5.688889 14.222223-22.755555-25.6z m0 0" fill="#F4DB26" p-id="11084"></path><path d="M361.244444 273.066667l2.844445-31.288889h-17.066667l14.222222 31.288889z m0 0" fill="#F4DB26" p-id="11085"></path><path d="M361.244444 273.066667l-17.066666-28.444445 14.222222-8.533333 2.844444 36.977778z m0 0" fill="#F4DB26" p-id="11086"></path><path d="M366.933333 213.333333l-19.911111 22.755556 11.377778 11.377778 8.533333-34.133334z m0 0" fill="#F4DB26" p-id="11087"></path><path d="M366.933333 213.333333l-2.844444 31.288889h-17.066667l19.911111-31.288889z m0 0" fill="#F4DB26" p-id="11088"></path><path d="M384 244.622222l-28.444444-11.377778-5.688889 14.222223 34.133333-2.844445z m0 0" fill="#F4DB26" p-id="11089"></path><path d="M384 244.622222l-31.288889 5.688889-2.844444-14.222222 34.133333 8.533333z m2.844444 65.422222l31.288889 5.688889 2.844445-14.222222-34.133334 8.533333z m0 0" fill="#F4DB26" p-id="11090"></path><path d="M386.844444 310.044444l28.444445-14.222222 5.688889 14.222222h-34.133334z m0 0" fill="#F4DB26" p-id="11091"></path><path d="M403.911111 278.755556l5.688889 31.288888 14.222222-2.844444-19.911111-28.444444z m0 0" fill="#F4DB26" p-id="11092"></path><path d="M403.911111 278.755556l22.755556 22.755555-11.377778 11.377778-11.377778-34.133333z m0 0" fill="#F4DB26" p-id="11093"></path><path d="M412.444444 338.488889l14.222223-28.444445-14.222223-8.533333v36.977778z m0 0" fill="#F4DB26" p-id="11094"></path><path d="M412.444444 338.488889l-5.688888-31.288889 14.222222-2.844444-8.533334 34.133333z m0 0" fill="#F4DB26" p-id="11095"></path><path d="M438.044444 284.444444l-28.444444 14.222223 5.688889 14.222222 22.755555-28.444445z m0 0" fill="#F4DB26" p-id="11096"></path><path d="M438.044444 284.444444l-14.222222 28.444445-14.222222-8.533333 28.444444-19.911112z m0 0" fill="#F4DB26" p-id="11097"></path><path d="M443.733333 321.422222l-22.755555-22.755555-11.377778 11.377777 34.133333 11.377778z m0 0" fill="#F4DB26" p-id="11098"></path><path d="M443.733333 321.422222l-31.288889-5.688889 2.844445-14.222222 28.444444 19.911111z m-56.888889 71.111111l25.6 17.066667 8.533334-14.222222-34.133334-2.844445z m0 0" fill="#F4DB26" p-id="11099"></path><path d="M386.844444 392.533333h31.288889v17.066667l-31.288889-17.066667z m0 0" fill="#F4DB26" p-id="11100"></path><path d="M415.288889 369.777778l-8.533333 28.444444 14.222222 5.688889-5.688889-34.133333z m0 0" fill="#F4DB26" p-id="11101"></path><path d="M415.288889 369.777778l11.377778 28.444444-14.222223 5.688889 2.844445-34.133333z m0 0" fill="#F4DB26" p-id="11102"></path><path d="M398.222222 426.666667l25.6-19.911111-8.533333-11.377778L398.222222 426.666667z m0 0" fill="#F4DB26" p-id="11103"></path><path d="M398.222222 426.666667l8.533334-31.288889 14.222222 5.688889-22.755556 25.6z m0 0" fill="#F4DB26" p-id="11104"></path><path d="M446.577778 389.688889h-31.288889v17.066667l31.288889-17.066667z m0 0" fill="#F4DB26" p-id="11105"></path><path d="M446.577778 389.688889l-25.6 19.911111-8.533334-11.377778 34.133334-8.533333z m0 0" fill="#F4DB26" p-id="11106"></path><path d="M435.2 426.666667l-11.377778-28.444445-14.222222 5.688889 25.6 22.755556z m0 0" fill="#F4DB26" p-id="11107"></path><path d="M435.2 426.666667l-25.6-17.066667 8.533333-14.222222 17.066667 31.288889z m0 0M329.955556 443.733333l17.066666 25.6 14.222222-8.533333-31.288888-17.066667z m0 0" fill="#F4DB26" p-id="11108"></path><path d="M329.955556 443.733333l28.444444 11.377778-5.688889 14.222222-22.755555-25.6z m0 0" fill="#F4DB26" p-id="11109"></path><path d="M364.088889 435.2l-19.911111 25.6 11.377778 8.533333 8.533333-34.133333z m0 0" fill="#F4DB26" p-id="11110"></path><path d="M364.088889 435.2l-2.844445 31.288889h-17.066666l19.911111-31.288889z m0 0" fill="#F4DB26" p-id="11111"></path><path d="M327.111111 480.711111l31.288889-8.533333-2.844444-14.222222-28.444445 22.755555z m0 0" fill="#F4DB26" p-id="11112"></path><path d="M327.111111 480.711111l19.911111-25.6 11.377778 8.533333-31.288889 17.066667z m0 0" fill="#F4DB26" p-id="11113"></path><path d="M327.111111 443.733333l17.066667 25.6 14.222222-8.533333-31.288889-17.066667z m0 0" fill="#F4DB26" p-id="11114"></path><path d="M327.111111 443.733333l28.444445 11.377778-5.688889 14.222222-22.755556-25.6z m0 0" fill="#F4DB26" p-id="11115"></path><path d="M364.088889 435.2l-19.911111 22.755556 11.377778 11.377777 8.533333-34.133333z m0 0" fill="#F4DB26" p-id="11116"></path><path d="M364.088889 435.2l-2.844445 31.288889h-17.066666l19.911111-31.288889z m0 0" fill="#F4DB26" p-id="11117"></path><path d="M384 466.488889l-28.444444-11.377778-5.688889 14.222222 34.133333-2.844444z m0 0" fill="#F4DB26" p-id="11118"></path><path d="M384 466.488889l-31.288889 8.533333-2.844444-14.222222 34.133333 5.688889z m0 0" fill="#F4DB26" p-id="11119"></path><path d="M361.244444 494.933333l2.844445-31.288889h-17.066667l14.222222 31.288889z m0 0" fill="#F4DB26" p-id="11120"></path><path d="M361.244444 494.933333l-17.066666-25.6 14.222222-8.533333 2.844444 34.133333z m0 0" fill="#F4DB26" p-id="11121"></path></svg>