<?xml version="1.0" standalone="no"?><!DOCTYPE svg PUBLIC "-//W3C//DTD SVG 1.1//EN" "http://www.w3.org/Graphics/SVG/1.1/DTD/svg11.dtd"><svg t="1723101046532" class="icon" viewBox="0 0 1536 1024" version="1.1" xmlns="http://www.w3.org/2000/svg" p-id="17828" xmlns:xlink="http://www.w3.org/1999/xlink" width="300" height="200"><path d="M0 0h1536v1024H0z" fill="#FF0000" p-id="17829"></path><path d="M0 0h614.4v1024H0z" fill="#006600" p-id="17830"></path><path d="M814.694 670.822c-77.337-2.33-431.974-223.692-434.406-258.944l19.584-32.658c35.174 51.113 397.722 266.394 433.331 258.765l-18.509 32.827" fill="#FFFF00" p-id="17831"></path><path d="M395.75 374.784c-6.937 18.673 92.542 80.174 212.232 152.97 119.685 72.791 222.886 117.776 230.536 111.324 0.468-0.832 3.763-6.502 3.46-6.458-1.433 2.16-4.922 2.841-10.367 1.272-32.338-9.326-116.675-48.039-221.12-111.376-104.443-63.342-195.313-121.712-209.434-146.513-0.983-1.718-1.684-4.854-1.54-7.291l-0.344-0.005-3.008 5.255-0.412 0.825h-0.003z m420.762 297.062c-1.31 2.381-3.756 2.458-8.402 1.949-28.928-3.2-116.708-45.888-220.575-108.066-120.857-72.345-220.672-138.265-209.843-155.494l2.947-5.207 0.58 0.179c-9.737 29.197 196.988 147.4 209.158 154.936 119.613 74.105 220.454 117.379 229.379 106.133l-3.247 5.583v-0.005z" fill="#FFFF00" p-id="17832"></path><path d="M614.835 433.229c77.407-0.612 172.928-10.578 227.9-32.487L830.888 381.5c-32.492 17.984-128.538 29.809-216.71 31.577-104.283-0.96-177.894-10.67-214.775-35.417l-11.18 20.493c67.799 28.69 137.275 34.782 226.611 35.08" fill="#FFFF00" p-id="17833"></path><path d="M845.926 401.178c-1.891 3.026-37.742 15.388-90.554 24.512-35.81 5.46-82.52 10.127-140.81 10.183-55.381 0.051-100.622-3.89-134.872-8.532-55.44-8.694-84.052-20.787-94.63-25.063 1.011-2.01 1.664-3.422 2.637-5.299 30.45 12.124 59.197 19.433 92.876 24.615 34.023 4.608 78.72 8.606 133.824 8.555 58.02-0.059 104.218-5.079 139.817-10.376 54.157-8.734 83.74-19.978 87.895-25.198l3.825 6.603h-0.005z m-10.393-19.515c-5.87 4.715-35.118 15.088-86.58 23.306-34.34 4.92-78.005 9.326-133.795 9.38-53.002 0.051-96.307-3.52-129.242-8.318-52.26-6.825-80.077-19.136-90.102-22.725a274.957 274.957 0 0 1 3.057-5.156c7.803 3.93 34.645 14.825 87.619 22.331 32.563 4.616 75.93 8.057 128.67 8.003 55.527-0.056 98.696-4.547 132.82-9.441 51.726-7.117 79.558-20.347 83.784-23.657l3.771 6.272v0.007zM360.653 526.49c47.61 25.607 153.357 38.512 253.424 39.4 91.113 0.144 209.813-14.085 254.2-37.606l-1.22-25.63c-13.888 21.7-141.09 42.518-253.968 41.666-112.878-0.852-217.697-18.286-252.638-40.855l0.204 23.017" fill="#FFFF00" p-id="17834"></path><path d="M870.707 522.803v6.11c-6.669 7.978-48.499 20.035-100.956 28.524-39.923 6.121-91.973 10.74-156.83 10.74-61.62 0-110.754-4.393-148.86-10.243-60.236-8.773-98.764-24.133-106.496-28.715l0.034-7.133c23.232 15.447 86.172 26.745 107.307 30.203 37.858 5.811 86.702 10.174 148.012 10.174 64.553 0 116.31-4.588 155.983-10.668 37.635-5.435 91.249-19.574 101.804-28.99h0.002z m0.026-21.74v6.111c-6.669 7.972-48.5 20.03-100.956 28.519-39.924 6.12-91.973 10.739-156.831 10.739-61.62 0-110.753-4.39-148.859-10.245-60.237-8.766-98.765-24.126-106.496-28.713l0.033-7.13c23.232 15.445 86.172 26.745 107.308 30.198 37.857 5.816 86.702 10.179 148.011 10.179 64.553 0 116.311-4.588 155.984-10.676 37.634-5.434 91.248-19.573 101.803-28.986l0.003 0.005zM613.863 666.42c-109.497-0.653-203.318-29.847-223.13-34.672l14.446 22.615c34.995 14.72 126.525 36.659 209.733 34.23 83.21-2.428 155.93-8.874 207.176-33.818l14.814-23.44c-34.923 16.448-153.774 34.916-223.04 35.085" fill="#FFFF00" p-id="17835"></path><path d="M827.648 649.523a343.245 343.245 0 0 1-6.646 9.805c-24.171 8.522-62.259 17.47-78.328 20.078-32.83 6.766-83.622 11.76-128.702 11.784-96.998-1.418-176.396-20.409-213.75-36.606l-3.015-5.181 0.494-0.778 5.11 1.981c66.427 23.767 141.033 33.247 211.707 34.95 44.897 0.158 89.843-5.146 126.187-11.646 55.734-11.167 78.27-19.584 85.184-23.399l1.759-0.988z m12.844-21.184l0.168 0.197a689.344 689.344 0 0 1-5.025 8.354c-12.89 4.608-47.877 14.842-98.967 21.987-33.661 4.585-54.584 9.027-121.546 10.327-125.478-3.192-206.72-27.727-226.02-33.779l-2.86-5.486c72.72 18.983 147 32.236 228.885 33.587 61.26-1.303 87.327-5.813 120.71-10.368 59.57-9.262 89.589-19.069 98.598-21.9a6.828 6.828 0 0 0-0.395-0.512l6.46-2.412-0.006 0.005z" fill="#FFFF00" p-id="17836"></path><path d="M841.805 506.266c0.356 72.03-36.506 136.668-66.197 165.184-42.004 40.343-97.697 66.293-162.736 67.489-72.628 1.334-141.108-46.014-159.476-66.814-35.911-40.665-65.149-92.305-66.086-161.902 4.45-78.615 35.31-133.376 80.046-170.928s104.302-55.842 153.91-54.533c57.236 1.51 124.096 29.588 170.294 85.33 30.267 36.52 43.374 76.154 50.245 136.174zM613.489 259.63c139.481 0 254.197 113.505 254.197 252.68 0 139.172-114.716 252.682-254.197 252.682S360.243 651.484 360.243 512.31 474.007 259.63 613.49 259.63" fill="#FFFF00" p-id="17837"></path><path d="M614.17 258.765c139.607 0 253.468 113.876 253.468 253.496 0 139.617-113.864 253.491-253.468 253.491-139.607 0-253.469-113.871-253.469-253.49S474.565 258.764 614.17 258.764zM366.28 512.26c0 136.346 111.964 247.916 247.89 247.916 135.928 0 247.892-111.57 247.892-247.916 0-136.35-111.967-247.92-247.892-247.92S366.28 375.915 366.28 512.26z" fill="#FFFF00" p-id="17838"></path><path d="M614.374 279.834c127.312 0 232.174 104.501 232.174 232.202 0 127.703-104.865 232.2-232.174 232.2S382.2 639.739 382.2 512.036c0-127.7 104.868-232.202 232.174-232.202z m-226.598 232.2c0 124.633 102.346 226.62 226.598 226.62s226.599-101.987 226.599-226.62c0-124.637-102.344-226.625-226.599-226.625-124.252 0-226.598 101.99-226.598 226.624z" fill="#FFFF00" p-id="17839"></path><path d="M624.589 257.74h-21.722l0.026 509.338h21.796z" fill="#FFFF00" p-id="17840"></path><path d="M622.413 254.838h5.53l0.045 515.2h-5.532l-0.04-515.2z m-21.558 0.005h5.57l0.008 515.2h-5.575v-515.2z" fill="#FFFF00" p-id="17841"></path><path d="M867.814 522.074v-18.83L852.48 488.96l-87.04-23.04L640 453.12l-151.04 7.68-107.52 25.6-21.709 16.077v18.834l54.989-24.671 130.56-20.48h125.44l92.16 10.24 64 15.36z" fill="#FFFF00" p-id="17842"></path><path d="M614.272 473.011c59.86-0.11 117.94 5.67 164.006 14.643 47.537 9.503 80.991 21.39 92.43 34.74l-0.014 6.612c-13.793-16.614-58.81-28.795-93.486-35.758-45.716-8.893-103.406-14.636-162.936-14.525-62.817 0.117-121.31 6.067-166.359 14.855-36.147 7.173-84.355 21.422-90.373 35.477v-6.884c3.305-9.728 39.201-24.266 89.559-34.348 45.386-8.85 103.987-14.697 167.173-14.812z m0.026-21.74c59.86-0.107 117.939 5.676 164.006 14.644 47.537 9.505 80.99 21.389 92.429 34.74l-0.013 6.612c-13.793-16.612-58.81-28.793-93.486-35.753-45.717-8.899-103.406-14.641-162.936-14.526-62.818 0.113-121.027 6.067-166.08 14.85-34.883 6.616-85.059 21.428-90.655 35.482v-6.886c3.305-9.626 39.928-24.684 89.561-34.348 45.387-8.852 103.988-14.694 167.174-14.814z m-1.23-110.893c94.334-0.471 176.615 13.189 214.26 32.473l13.732 23.754c-32.72-17.633-121.488-35.968-227.853-33.226-86.666 0.533-179.27 9.541-225.73 34.33l16.391-27.415C442 350.52 531.924 340.488 613.071 340.383" fill="#FFFF00" p-id="17843"></path><path d="M614.323 359.987c53.804-0.143 105.792 2.893 147.139 10.353 38.505 7.165 75.225 17.92 80.476 23.705l4.07 7.194c-12.769-8.338-44.544-17.623-85.348-25.36-40.975-7.7-92.928-10.252-146.432-10.111-60.728-0.208-107.909 2.997-148.4 10.058-42.824 8.013-72.535 19.458-79.864 24.898l3.988-7.603c14.244-7.265 36.838-16.025 74.81-22.86 41.875-7.65 89.557-9.944 149.564-10.274z m-0.023-21.719c51.49-0.136 102.328 2.734 141.957 9.856 31.255 6.085 62.165 15.585 73.483 24.039l5.954 9.459c-10.122-11.251-48.22-21.914-81.853-27.884-39.325-6.784-88.052-9.467-139.54-9.897-54.037 0.154-103.975 3.461-142.726 10.517-36.969 7.037-60.826 15.365-70.92 21.87l5.236-7.903c13.929-7.332 36.433-14.067 64.775-19.574 39.038-7.109 89.283-10.332 143.637-10.483z m125.924 279.358c-46.638-8.704-93.36-9.972-125.996-9.588-157.201 1.844-207.984 32.282-214.182 41.498l-11.75-19.154c40.025-29.01 125.63-45.279 226.785-43.615 52.526 0.86 97.853 4.347 135.985 11.733l-10.845 19.13" fill="#FFFF00" p-id="17844"></path><path d="M613.325 605.338c43.73 0.652 86.653 2.457 128.084 10.183l-3 5.3c-38.48-7.105-79.5-9.823-124.936-9.6-58.017-0.456-116.697 4.963-167.785 19.624-16.12 4.488-42.805 14.848-45.527 23.414l-2.985-4.923c0.86-5.06 16.988-15.564 47.14-24.038 58.517-16.755 113.255-19.582 169.011-19.966v0.006z m1.984-22.006c45.307 0.845 92.096 2.941 137.574 11.95l-3.123 5.512c-41.068-8.151-80.307-10.87-134.182-11.7-58.202 0.108-119.939 4.258-176.072 20.575-18.125 5.281-49.4 16.691-50.442 25.728l-2.985-5.286c0.678-8.208 27.755-18.914 52.116-26 56.566-16.445 118.464-20.674 177.116-20.78z" fill="#FFFF00" p-id="17845"></path><path d="M838.605 633.293l-18.89 29.31L765.44 614.4l-140.8-94.72-158.72-87.04-82.406-28.186 17.561-32.563 5.965-3.251 51.2 12.8 168.96 87.04 97.28 61.44 81.92 58.88 33.28 38.4z" fill="#FFFF00" p-id="17846"></path><path d="M380.544 405.222c14.454-9.804 120.676 37.517 231.82 104.535 110.851 67.21 216.774 143.158 207.212 157.371l-3.143 4.946-1.444 1.14c0.307-0.223 1.902-2.171-0.154-7.44-4.726-15.54-79.862-75.497-204.531-150.771-121.536-72.474-222.822-116.15-232.952-103.665l3.192-6.118zM842.47 632.876c9.14-18.054-89.385-92.273-211.538-164.537-124.96-70.825-215.024-112.514-231.475-100.083l-3.655 6.656c-0.031 0.364 0.133-0.456 0.906-1.052 2.99-2.611 7.949-2.432 10.186-2.476 28.326 0.425 109.228 37.658 222.735 102.728 49.736 28.966 210.102 131.817 209.49 160.742 0.044 2.484 0.205 2.996-0.73 4.227l4.081-6.203v-0.005z" fill="#FFFF00" p-id="17847"></path><path d="M462.336 540.186c0 41.653 17.057 79.326 44.69 106.86 27.686 27.59 65.31 45.001 107.031 45.001 41.935 0 79.992-17.031 107.56-44.515 27.57-27.482 44.655-65.414 44.663-107.213h-0.005V337.595l-303.975-0.361 0.03 202.952h0.006z" fill="#FFFFFF" p-id="17848"></path><path d="M468.02 540.467v0.115c0 39.826 16.488 76.094 42.943 102.423 26.506 26.381 63.012 42.783 102.948 42.783 40.143 0 76.575-16.281 102.968-42.562 26.389-26.279 42.745-62.549 42.75-102.513h-0.005V344.038l-291.43-0.048-0.18 196.475M701.03 402.872l0.01 125.161-0.104 13.24c0 3.485-0.208 7.455-0.615 10.837-2.368 19.789-11.469 37.036-24.947 50.453-15.78 15.708-37.558 25.451-61.56 25.451-23.877 0-45.159-10.081-61.005-25.856-16.253-16.18-25.677-38.364-25.677-61.304l-0.03-138.3 173.926 0.313 0.005 0.005z" fill="#FF0000" p-id="17849"></path><path d="M486.886 395.34c0.346-14.133 10.374-17.479 10.445-17.528 0.074-0.048 10.834 3.602 10.798 17.66l-21.243-0.131" fill="#FFFF00" p-id="17850"></path><path d="M478.234 378.086l-1.746 16.244 10.598 0.023c0.102-13.44 10.176-15.675 10.42-15.624 0.23-0.013 10.211 2.97 10.477 15.624h10.627l-1.92-16.369-38.456 0.097v0.005z m-2.458 16.308h43.382c0.914 0 1.664 0.903 1.664 2.007 0 1.1-0.75 1.999-1.664 1.999h-43.382c-0.914 0-1.664-0.896-1.664-2 0-1.103 0.75-2.006 1.664-2.006z" fill="#FFFF00" p-id="17851"></path><path d="M491.546 394.317c0.046-8.481 5.79-10.88 5.821-10.875 0 0 5.996 2.473 6.042 10.875h-11.863m-14.848-22.989h41.587c0.875 0 1.595 0.814 1.595 1.805 0 0.99-0.717 1.802-1.595 1.802h-41.587c-0.876 0-1.595-0.806-1.595-1.802 0-0.99 0.717-1.805 1.595-1.805z m0.87 3.635h39.777c0.837 0 1.523 0.812 1.523 1.802 0 0.994-0.686 1.803-1.523 1.803h-39.777c-0.837 0-1.523-0.81-1.523-1.803 0-0.99 0.686-1.802 1.523-1.802z m12.851-27.11l3.141 0.005v2.23h2.292v-2.279l3.217 0.01v2.271h2.297v-2.278h3.22l-0.005 5.145c0 0.812-0.65 1.334-1.405 1.334h-11.29c-0.76 0-1.46-0.607-1.464-1.346l-0.008-5.09h0.003z m11.827 6.886l0.71 16.515-11.016-0.039 0.73-16.52 9.576 0.044M488.806 362.394l0.336 8.903-10.56 0.003 0.297-8.906h9.93-0.003zM476.928 355.942l3.072 0.008v2.232h2.245V355.9l3.149 0.01v2.276h2.25v-2.286l3.149 0.005-0.005 5.15c0 0.805-0.638 1.327-1.372 1.327h-11.052c-0.742 0-1.43-0.602-1.433-1.344l-0.006-5.092z" fill="#FFFF00" p-id="17852"></path><path d="M496.384 359.962c-0.067-1.606 2.245-1.623 2.217 0v3.932h-2.217v-3.932M482.74 365.67c-0.008-1.551 2.142-1.582 2.114 0v3.04h-2.115v-3.04" p-id="17853"></path><path d="M595.548 518.16v0.012c0 5.663 2.176 10.821 5.663 14.567 3.494 3.753 8.307 6.085 13.573 6.085 5.292 0 10.097-2.317 13.576-6.055 3.476-3.735 5.637-8.888 5.637-14.574V490.63l-38.38-0.033-0.071 27.56" fill="#003399" p-id="17854"></path><path d="M600.545 501.082a3.804 3.804 0 1 0 7.609 0 3.804 3.804 0 1 0-7.609 0zM621.839 501.1a3.804 3.804 0 1 0 7.609 0 3.804 3.804 0 1 0-7.609 0zM611.172 511.322a3.804 3.804 0 1 0 7.608 0 3.804 3.804 0 1 0-7.608 0zM600.545 522.025a3.804 3.804 0 1 0 7.609 0 3.804 3.804 0 1 0-7.609 0zM621.816 521.997a3.804 3.804 0 1 0 7.609 0 3.804 3.804 0 1 0-7.609 0z" fill="#FFFFFF" p-id="17855"></path></svg>