<?xml version="1.0" standalone="no"?><!DOCTYPE svg PUBLIC "-//W3C//DTD SVG 1.1//EN" "http://www.w3.org/Graphics/SVG/1.1/DTD/svg11.dtd"><svg t="1723100886740" class="icon" viewBox="0 0 1522 1024" version="1.1" xmlns="http://www.w3.org/2000/svg" p-id="8677" xmlns:xlink="http://www.w3.org/1999/xlink" width="297.265625" height="200"><path d="M0 0h1522.67658v1024H0z" fill="#C8414B" p-id="8678"></path><path d="M0 215.712515h1522.67658v592.57497H0z" fill="#FFD250" p-id="8679"></path><path d="M660.460967 512l22.840148-102.780669a15.226766 15.226766 0 0 0-15.226766-18.399009h-15.861214a14.592317 14.592317 0 0 0-14.592317 18.399009z" fill="#C8414B" p-id="8680"></path><path d="M634.448575 458.071871h53.928129v229.035936H634.448575z" fill="#F5F5F5" p-id="8681"></path><path d="M619.856258 431.425031H697.893432v26.64684H619.856258z" fill="#FAB446" p-id="8682"></path><path d="M565.928129 512H697.893432v26.64684H565.928129zM697.893432 619.856258l-80.574969-27.281289v-26.64684l80.574969 26.64684z m-444.114002-107.856258l22.840149-102.780669a15.861214 15.861214 0 0 0-15.226766-18.399009h-13.32342a15.861214 15.861214 0 0 0-15.226766 18.399009z" fill="#C8414B" p-id="8683"></path><path d="M350.215613 431.425031a26.64684 26.64684 0 0 0-26.64684 26.64684v175.107807c0 32.991326 30.453532 94.532838 134.503098 94.532837s134.503098-63.444857 134.503098-94.532837V458.071871a26.64684 26.64684 0 0 0-26.64684-26.64684z" fill="#F5F5F5" p-id="8684"></path><path d="M458.071871 565.928129H323.568773v-107.856258a26.64684 26.64684 0 0 1 26.64684-26.64684h107.856258z m0 0h134.503098v67.251549a67.251549 67.251549 0 0 1-134.503098 0z" fill="#C8414B" p-id="8685"></path><path d="M323.568773 565.928129h134.503098v67.251549a67.251549 67.251549 0 0 1-134.503098 0z" fill="#FAB446" p-id="8686"></path><path d="M431.425031 687.107807V565.928129h-27.281289v136.406443a70.423792 70.423792 0 0 0 27.281289-15.226765z m-50.755886 15.226765v-133.2342h-30.453532v121.179678a70.423792 70.423792 0 0 0 30.453532 12.054522z" fill="#C8414B" p-id="8687"></path><path d="M350.215613 512H431.425031v26.64684H350.215613z" fill="#FFB441" p-id="8688"></path><path d="M350.215613 458.071871H431.425031v27.281289H350.215613z" fill="#FAB446" p-id="8689"></path><path d="M363.539033 473.933086h53.928129v48.85254h-53.928129z" fill="#FAB446" p-id="8690"></path><path d="M229.035936 458.071871h53.928128v229.035936h-53.928128z" fill="#F5F5F5" p-id="8691"></path><path d="M215.712515 673.784387h80.57497v28.550185H215.712515z m0-242.359356h80.57497v26.64684H215.712515z" fill="#FAB446" p-id="8692"></path><path d="M202.389095 702.334572h107.22181v27.281289H202.389095z" fill="#5064AA" p-id="8693"></path><path d="M634.448575 673.784387h81.209418v28.550185H634.448575z" fill="#FAB446" p-id="8694"></path><path d="M606.532838 702.334572h107.856257v27.281289h-107.856257z" fill="#5064AA" p-id="8695"></path><path d="M380.669145 404.143742h157.977695v27.281289H380.669145z" fill="#FAB446" p-id="8696"></path><path d="M444.114002 321.665428h26.646841v82.478314H444.114002z" fill="#FFB441" p-id="8697"></path><path d="M431.425031 363.539033a39.97026 39.97026 0 0 1-40.604709-41.873605 40.604709 40.604709 0 1 1 80.574969 0 39.97026 39.97026 0 0 1-39.97026 41.873605z m0-53.928128a13.957869 13.957869 0 1 0 0 27.281288 13.957869 13.957869 0 0 0 0-27.281288z" fill="#F5F5F5" p-id="8698"></path><path d="M485.35316 363.539033A39.97026 39.97026 0 0 1 444.114002 321.665428a40.604709 40.604709 0 1 1 81.209418 0 39.97026 39.97026 0 0 1-39.97026 41.873605z m0-53.928128a13.957869 13.957869 0 1 0 0 27.281288 13.957869 13.957869 0 0 0 0-27.281288z" fill="#F5F5F5" p-id="8699"></path><path d="M538.64684 390.820322a40.604709 40.604709 0 1 1 40.604709-40.604709 40.604709 40.604709 0 0 1-40.604709 40.604709z m0-53.928129a13.32342 13.32342 0 1 0 0 26.64684 13.32342 13.32342 0 1 0 0-26.64684zM380.669145 390.820322a40.604709 40.604709 0 0 1 0-81.209417 40.604709 40.604709 0 0 1 0 81.209417z m0-53.928129a13.32342 13.32342 0 1 0 0 26.64684 13.32342 13.32342 0 1 0 0-26.64684z" fill="#F5F5F5" p-id="8700"></path><path d="M538.64684 619.856258v13.32342a13.32342 13.32342 0 0 1-13.32342 13.32342 13.32342 13.32342 0 0 1-13.32342-13.32342v-13.32342h26.64684m27.281289-27.281289H485.35316v40.604709a40.604709 40.604709 0 0 0 39.97026 40.604709 40.604709 40.604709 0 0 0 40.604709-40.604709v-40.604709z" fill="#FAB446" p-id="8701"></path><path d="M525.32342 538.64684a26.64684 26.64684 0 0 1-26.64684-26.64684v-26.64684a26.012392 26.012392 0 0 1 27.281289-26.64684 27.281289 27.281289 0 0 1 26.64684 26.64684v26.64684a26.64684 26.64684 0 0 1-27.281289 26.64684z" fill="#FFA0D2" p-id="8702"></path><path d="M417.467162 565.928129a40.604709 40.604709 0 0 0 81.209418 0 40.604709 40.604709 0 0 0-81.209418 0z" fill="#5064AA" p-id="8703"></path><path d="M444.114002 269.640644h26.646841v80.574969H444.114002z" fill="#FAB446" p-id="8704"></path><path d="M380.669145 404.143742l-27.281289-26.64684 15.861215-15.861214a130.061958 130.061958 0 0 1 183.990086 0l15.861215 15.861214-27.281289 26.64684z" fill="#C8414B" p-id="8705"></path><path d="M444.114002 377.496902a13.32342 13.32342 0 1 0 26.646841 0 13.32342 13.32342 0 1 0-26.646841 0zM390.820322 377.496902a13.32342 13.32342 0 1 0 26.64684 0 13.32342 13.32342 0 1 0-26.64684 0zM498.67658 377.496902a13.32342 13.32342 0 0 0 26.64684 0 13.32342 13.32342 0 1 0-26.64684 0z" fill="#FFD250" p-id="8706"></path><path d="M215.712515 512h134.503098v26.64684H215.712515z m0 107.856258l80.57497-27.281289v-26.64684l-80.57497 26.64684z" fill="#C8414B" p-id="8707"></path></svg>